<svg width="40" height="40" viewBox="0 0 40 40" fill="none" xmlns="http://www.w3.org/2000/svg">
  <!-- House shape -->
  <path d="M20 4L6 16V34C6 35.1046 6.89543 36 8 36H32C33.1046 36 34 35.1046 34 34V16L20 4Z" fill="#2563eb" stroke="#1d4ed8" stroke-width="1"/>
  
  <!-- Roof -->
  <path d="M20 4L34 16H6L20 4Z" fill="#1d4ed8"/>
  
  <!-- Door -->
  <rect x="16" y="24" width="8" height="12" fill="#ffffff" rx="1"/>
  
  <!-- Door handle -->
  <circle cx="22" cy="30" r="1" fill="#2563eb"/>
  
  <!-- Windows -->
  <rect x="10" y="20" width="4" height="4" fill="#ffffff" rx="0.5"/>
  <rect x="26" y="20" width="4" height="4" fill="#ffffff" rx="0.5"/>
  
  <!-- Window cross lines -->
  <line x1="12" y1="20" x2="12" y2="24" stroke="#2563eb" stroke-width="0.5"/>
  <line x1="10" y1="22" x2="14" y2="22" stroke="#2563eb" stroke-width="0.5"/>
  <line x1="28" y1="20" x2="28" y2="24" stroke="#2563eb" stroke-width="0.5"/>
  <line x1="26" y1="22" x2="30" y2="22" stroke="#2563eb" stroke-width="0.5"/>
  
  <!-- Chimney -->
  <rect x="28" y="8" width="3" height="8" fill="#6b7280"/>
  
  <!-- Foundation line -->
  <line x1="6" y1="36" x2="34" y2="36" stroke="#374151" stroke-width="2"/>
</svg>